<svg xmlns="http://www.w3.org/2000/svg" width="386" height="256.211" viewBox="0 0 386 256.211">
  <g id="Grupo_36" data-name="Grupo 36" transform="translate(-22 -598)">
    <g id="Retângulo_33" data-name="Retângulo 33" transform="translate(22 711)" fill="#fff" stroke="#ebebeb" stroke-width="1">
      <rect width="185.5" height="63.21" rx="10" stroke="none"/>
      <rect x="0.5" y="0.5" width="184.5" height="62.21" rx="9.5" fill="none"/>
    </g>
    <g id="Retângulo_41" data-name="Retângulo 41" transform="translate(22 791.001)" fill="#fff" stroke="#ebebeb" stroke-width="1">
      <rect width="185.5" height="63.21" rx="10" stroke="none"/>
      <rect x="0.5" y="0.5" width="184.5" height="62.21" rx="9.5" fill="none"/>
    </g>
    <g id="Retângulo_34" data-name="Retângulo 34" transform="translate(222.5 711)" fill="#fff" stroke="#ebebeb" stroke-width="1">
      <rect width="185.5" height="63.21" rx="10" stroke="none"/>
      <rect x="0.5" y="0.5" width="184.5" height="62.21" rx="9.5" fill="none"/>
    </g>
    <g id="Retângulo_40" data-name="Retângulo 40" transform="translate(222.5 791.001)" fill="#fff" stroke="#ebebeb" stroke-width="1">
      <rect width="185.5" height="63.21" rx="10" stroke="none"/>
      <rect x="0.5" y="0.5" width="184.5" height="62.21" rx="9.5" fill="none"/>
    </g>
    <g id="Retângulo_31" data-name="Retângulo 31" transform="translate(22 633)" fill="#fff" stroke="#ebebeb" stroke-width="1">
      <rect width="185.5" height="63.208" rx="10" stroke="none"/>
      <rect x="0.5" y="0.5" width="184.5" height="62.208" rx="9.5" fill="none"/>
    </g>
    <g id="Retângulo_32" data-name="Retângulo 32" transform="translate(222.5 633)" fill="#fff" stroke="#ebebeb" stroke-width="1">
      <rect width="185.5" height="63.208" rx="10" stroke="none"/>
      <rect x="0.5" y="0.5" width="184.5" height="62.208" rx="9.5" fill="none"/>
    </g>
    <text id="Pets_para_adoção" data-name="Pets para adoção" transform="translate(22 613)" fill="#707070" font-size="15" font-family="Nunito-Bold, Nunito" font-weight="700"><tspan x="0" y="0">Pets para adoção</tspan></text>
    <text id="Cães" transform="translate(42 669.604)" fill="#707070" font-size="15" font-family="Nunito-SemiBold, Nunito" font-weight="600"><tspan x="0" y="0">Cães</tspan></text>
    <text id="Cães_Filhotes" data-name="Cães Filhotes" transform="translate(42 747.605)" fill="#707070" font-size="15" font-family="Nunito-SemiBold, Nunito" font-weight="600"><tspan x="0" y="0">Cães Filhotes</tspan></text>
    <text id="Gatos_Filhotes" data-name="Gatos Filhotes" transform="translate(42 827.606)" fill="#707070" font-size="15" font-family="Nunito-SemiBold, Nunito" font-weight="600"><tspan x="0" y="0">Gatos Filhotes</tspan></text>
    <text id="Gatos" transform="translate(256 669.604)" fill="#707070" font-size="15" font-family="Nunito-SemiBold, Nunito" font-weight="600"><tspan x="0" y="0">Gatos</tspan></text>
    <text id="Cães_Idosos" data-name="Cães Idosos" transform="translate(256 747.605)" fill="#707070" font-size="15" font-family="Nunito-SemiBold, Nunito" font-weight="600"><tspan x="0" y="0">Cães Idosos</tspan></text>
    <text id="Gatos_Idosos" data-name="Gatos Idosos" transform="translate(256 827.606)" fill="#707070" font-size="15" font-family="Nunito-SemiBold, Nunito" font-weight="600"><tspan x="0" y="0">Gatos Idosos</tspan></text>
    <path id="Icon_ionic-ios-arrow-back" data-name="Icon ionic-ios-arrow-back" d="M17.342,13.818,11.571,8.051a1.09,1.09,0,1,1,1.544-1.539l6.539,6.534a1.088,1.088,0,0,1,.032,1.5l-6.566,6.58a1.09,1.09,0,1,1-1.544-1.539Z" transform="translate(173.75 648.784)" fill="#cfcccc"/>
    <path id="Icon_ionic-ios-arrow-back-2" data-name="Icon ionic-ios-arrow-back" d="M17.342,13.818,11.571,8.051a1.09,1.09,0,1,1,1.544-1.539l6.539,6.534a1.088,1.088,0,0,1,.032,1.5l-6.566,6.58a1.09,1.09,0,1,1-1.544-1.539Z" transform="translate(173.75 728.785)" fill="#cfcccc"/>
    <path id="Icon_ionic-ios-arrow-back-3" data-name="Icon ionic-ios-arrow-back" d="M17.342,13.818,11.571,8.051a1.09,1.09,0,1,1,1.544-1.539l6.539,6.534a1.088,1.088,0,0,1,.032,1.5l-6.566,6.58a1.09,1.09,0,1,1-1.544-1.539Z" transform="translate(173.75 808.786)" fill="#cfcccc"/>
    <path id="Icon_ionic-ios-arrow-back-4" data-name="Icon ionic-ios-arrow-back" d="M17.342,13.818,11.571,8.051a1.09,1.09,0,1,1,1.544-1.539l6.539,6.534a1.088,1.088,0,0,1,.032,1.5l-6.566,6.58a1.09,1.09,0,1,1-1.544-1.539Z" transform="translate(374.75 648.784)" fill="#cfcccc"/>
    <path id="Icon_ionic-ios-arrow-back-5" data-name="Icon ionic-ios-arrow-back" d="M17.342,13.818,11.571,8.051a1.09,1.09,0,1,1,1.544-1.539l6.539,6.534a1.088,1.088,0,0,1,.032,1.5l-6.566,6.58a1.09,1.09,0,1,1-1.544-1.539Z" transform="translate(374.75 728.785)" fill="#cfcccc"/>
    <path id="Icon_ionic-ios-arrow-back-6" data-name="Icon ionic-ios-arrow-back" d="M17.342,13.818,11.571,8.051a1.09,1.09,0,1,1,1.544-1.539l6.539,6.534a1.088,1.088,0,0,1,.032,1.5l-6.566,6.58a1.09,1.09,0,1,1-1.544-1.539Z" transform="translate(374.75 808.786)" fill="#cfcccc"/>
  </g>
</svg>
