<svg xmlns="http://www.w3.org/2000/svg" xmlns:xlink="http://www.w3.org/1999/xlink" width="430" height="133" viewBox="0 0 430 133">
  <defs>
    <clipPath id="clip-path">
      <rect id="Retângulo_42" data-name="Retângulo 42" width="430" height="133" fill="#fff" stroke="#707070" stroke-width="1"/>
    </clipPath>
  </defs>
  <g id="Header" clip-path="url(#clip-path)">
    <g id="Grupo_34" data-name="Grupo 34" transform="translate(-215.624 -552.104) rotate(-4)">
      <g id="Grupo_33" data-name="Grupo 33" transform="translate(0.281 0.281)">
        <path id="Caminho_16" data-name="Caminho 16" d="M522.395,280.811c-.082,26.941-9.09,50.607-28.088,65.183-18.916,14.576-45.12,20.39-77.793,20.39-55.438-.082-99.985-19.244-154.194-19.407-26.286,0-46.512,6.06-69.441,12.938-22.847,6.96-48.232,14.412-81.969,14.33-32.428-.082-57.4-12.2-73.126-29.479A86.472,86.472,0,0,1,15.51,286.952c.082-33.41,14.985-56.5,34.147-73.945C68.819,195.484,91.829,181.153,115,157.16c23.5-24.321,42.582-50.607,63.872-72.061,21.291-21.537,46.43-38.569,78.858-38.569,35.949.082,61.5,20.472,80.9,44.874,19.489,24.4,35.376,53.309,56.257,78.776,15.559,19.08,43.974,29.807,71.242,42.581,13.675,6.305,26.777,13.512,37.668,24.239a60.836,60.836,0,0,1,18.589,43.81" transform="translate(103.309 326.304)" fill="#4f7575"/>
        <path id="Caminho_17" data-name="Caminho 17" d="M522.395,280.811c-.082,26.941-9.09,50.607-28.088,65.183-18.916,14.576-45.12,20.39-77.793,20.39-55.438-.082-99.985-19.244-154.194-19.407-26.286,0-46.512,6.06-69.441,12.938-22.847,6.96-48.232,14.412-81.969,14.33-32.428-.082-57.4-12.2-73.126-29.479A86.472,86.472,0,0,1,15.51,286.952c.082-33.41,14.985-56.5,34.147-73.945C68.819,195.484,91.829,181.153,115,157.16c23.5-24.321,42.582-50.607,63.872-72.061,21.291-21.537,46.43-38.569,78.858-38.569,35.949.082,61.5,20.472,80.9,44.874,19.489,24.4,35.376,53.309,56.257,78.776,15.559,19.08,43.974,29.807,71.242,42.581,13.675,6.305,26.777,13.512,37.668,24.239A60.836,60.836,0,0,1,522.395,280.811Z" transform="translate(103.309 326.304)" fill="#4f7575"/>
        <path id="Caminho_18" data-name="Caminho 18" d="M194.829,144.825c-.082,38-8.926,74.845-24.894,103.342s-40.452,50.279-71.324,50.2c-31.2,0-55.929-20.718-72.143-45.284S.919,199.526,1,173.813c0-36.849,13.02-71.9,31.363-98.183C50.624,49.344,74.126,30.018,101.395,30.1c25.467,0,48.723,15.231,65.592,36.44,16.869,21.127,27.842,48.887,27.842,78.285" transform="translate(-1 208.193)" fill="#4f7575"/>
        <path id="Caminho_19" data-name="Caminho 19" d="M194.829,144.825c-.082,38-8.926,74.845-24.894,103.342s-40.452,50.279-71.324,50.2c-31.2,0-55.929-20.718-72.143-45.284S.919,199.526,1,173.813c0-36.849,13.02-71.9,31.363-98.183C50.624,49.344,74.126,30.018,101.395,30.1c25.467,0,48.723,15.231,65.592,36.44C183.856,87.667,194.829,115.427,194.829,144.825Z" transform="translate(-1 208.193)" fill="#4f7575"/>
        <path id="Caminho_20" data-name="Caminho 20" d="M266.54,183.627c-13.348,35.13-32.018,65.428-55.11,86.555-23.01,21.127-52.162,33.41-81.56,26.45-29.316-6.96-52.081-29.316-59.942-59.287-7.943-30.053-2.293-66.984,19.243-107.109,18.1-33.738,37.751-60.187,59.287-77.711,16.132-13.1,34.393-21.455,52.653-22.273a68.3,68.3,0,0,1,18.179,1.883c26.859,6.387,43.4,31.445,51.18,59.7,7.7,28.251,7.37,61.907-3.931,91.8" transform="translate(469.876 208.943)" fill="#4f7575"/>
        <path id="Caminho_21" data-name="Caminho 21" d="M266.54,183.627c-13.348,35.13-32.018,65.428-55.11,86.555-23.01,21.127-52.162,33.41-81.56,26.45-29.316-6.96-52.081-29.316-59.942-59.287-7.943-30.053-2.293-66.984,19.243-107.109,18.1-33.738,37.751-60.187,59.287-77.711,16.132-13.1,34.393-21.455,52.653-22.273a68.3,68.3,0,0,1,18.179,1.883c26.859,6.387,43.4,31.445,51.18,59.7C278.168,120.082,277.84,153.738,266.54,183.627Z" transform="translate(469.876 208.943)" fill="#4f7575"/>
        <path id="Caminho_22" data-name="Caminho 22" d="M257.031,128.877c-.082,40.125-9.335,81.233-28.087,113.578-18.834,32.346-49.132,56.748-87.7,56.666-19.407,0-36.194-9.09-48.4-21.946s-20.554-29.234-26.941-46.594C52.967,195.7,48.3,156.473,48.381,131.333c0-27.023,9.5-57.976,28.5-83.853C95.958,21.6,125.765.968,164.088,1.05c42.663.082,93.106,45.857,92.942,127.827" transform="translate(339.603 -0.641)" fill="#4f7575"/>
        <path id="Caminho_23" data-name="Caminho 23" d="M257.031,128.877c-.082,40.125-9.335,81.233-28.087,113.578-18.834,32.346-49.132,56.748-87.7,56.666-19.407,0-36.194-9.09-48.4-21.946s-20.554-29.234-26.941-46.594C52.967,195.7,48.3,156.473,48.381,131.333c0-27.023,9.5-57.976,28.5-83.853C95.958,21.6,125.765.968,164.088,1.05,206.752,1.132,257.194,46.907,257.031,128.877Z" transform="translate(339.603 -0.641)" fill="#4f7575"/>
        <path id="Caminho_24" data-name="Caminho 24" d="M214.9,117.2c-.082,38.078-3.931,77.548-16.459,109.4-6.305,15.968-14.822,30.38-27.1,40.944s-28.5,16.705-46.594,16.705c-34.639-.082-60.351-27.6-77.3-57.895s-26.45-65.019-26.368-91.8c.082-29.07,7.7-60.924,24.812-87.047C63.079,21.39,91.412,1,127.934,1c24.976.082,46.594,15.559,61.907,36.931C205.236,59.3,214.9,87.391,214.9,117.2" transform="translate(143.279 -1)" fill="#4f7575"/>
        <path id="Caminho_25" data-name="Caminho 25" d="M214.9,117.2c-.082,38.078-3.931,77.548-16.459,109.4-6.305,15.968-14.822,30.38-27.1,40.944s-28.5,16.705-46.594,16.705c-34.639-.082-60.351-27.6-77.3-57.895s-26.45-65.019-26.368-91.8c.082-29.07,7.7-60.924,24.812-87.047C63.079,21.39,91.412,1,127.934,1c24.976.082,46.594,15.559,61.907,36.931C205.236,59.3,214.9,87.391,214.9,117.2Z" transform="translate(143.279 -1)" fill="#4f7575"/>
      </g>
    </g>
  </g>
</svg>
