<svg xmlns="http://www.w3.org/2000/svg" width="33.163" height="31.422" viewBox="0 0 33.163 31.422">
  <g id="heart-tick" transform="translate(-1.25 -2.35)">
    <path id="Caminho_29" data-name="Caminho 29" d="M27.6,20a7.357,7.357,0,0,1-1.108,3.91A7.567,7.567,0,1,1,27.6,20Z" transform="translate(6.065 5.423)" fill="none" stroke="#4f7575" stroke-linecap="round" stroke-linejoin="round" stroke-width="1.5"/>
    <path id="Caminho_30" data-name="Caminho 30" d="M15.33,17.888,17.2,19.756l4.053-3.736" transform="translate(7.774 7.534)" fill="none" stroke="#4f7575" stroke-linecap="round" stroke-linejoin="round" stroke-width="1.5"/>
    <path id="Caminho_31" data-name="Caminho 31" d="M33.663,11.95a17.458,17.458,0,0,1-2.074,8.264A7.592,7.592,0,0,0,20.412,30.489a16.22,16.22,0,0,1-1.6.649,3.452,3.452,0,0,1-1.963,0C12.259,29.57,2,23.032,2,11.95A8.789,8.789,0,0,1,17.832,6.63,8.789,8.789,0,0,1,33.663,11.95Z" transform="translate(0 0)" fill="none" stroke="#4f7575" stroke-linecap="round" stroke-linejoin="round" stroke-width="1.5"/>
  </g>
</svg>
