<svg xmlns="http://www.w3.org/2000/svg" width="25.106" height="28.828" viewBox="0 0 25.106 28.828">
  <g id="location-add" transform="translate(-2.894 -1.25)">
    <path id="Caminho_36" data-name="Caminho 36" d="M3.709,10.87C6.4-.966,23.936-.952,26.615,10.884c1.572,6.943-2.747,12.82-6.533,16.455a7.1,7.1,0,0,1-9.854,0C6.456,23.7,2.137,17.813,3.709,10.87Z" transform="translate(0.285 0)" fill="none" stroke="#fff" stroke-width="1.5"/>
    <path id="Caminho_47" data-name="Caminho 47" d="M2.267-5.495a.613.613,0,0,1-.439-.172.775.775,0,0,1-.215-.5L.977-12.858.96-13.03a1.067,1.067,0,0,1,.37-.852,1.386,1.386,0,0,1,.938-.318,1.386,1.386,0,0,1,.938.318,1.067,1.067,0,0,1,.37.852l-.017.189L2.921-6.166a.775.775,0,0,1-.215.5A.613.613,0,0,1,2.267-5.495Zm0,3.613a1.221,1.221,0,0,1-.912-.37,1.265,1.265,0,0,1-.361-.92,1.265,1.265,0,0,1,.361-.92,1.221,1.221,0,0,1,.912-.37,1.221,1.221,0,0,1,.912.37,1.265,1.265,0,0,1,.361.92,1.265,1.265,0,0,1-.361.92A1.221,1.221,0,0,1,2.267-1.882Z" transform="translate(13.375 23.167)" fill="#fff"/>
  </g>
</svg>
