<svg xmlns="http://www.w3.org/2000/svg" width="33.163" height="35.837" viewBox="0 0 33.163 35.837">
  <g id="mapa_selecionado" data-name="mapa selecionado" transform="translate(-1.54 -2.513)">
    <path id="Caminho_44" data-name="Caminho 44" d="M2.29,10.474V26.1c0,3.052,2.169,4.305,4.8,2.8l3.775-2.153a3.585,3.585,0,0,1,3.036-.08l8.434,4.225a3.644,3.644,0,0,0,3.036-.08l6.956-3.984a3.6,3.6,0,0,0,1.623-2.8V8.4c0-3.052-2.169-4.305-4.8-2.8L25.375,7.759a3.585,3.585,0,0,1-3.036.08L13.9,3.63a3.644,3.644,0,0,0-3.036.08L3.912,7.695A3.551,3.551,0,0,0,2.29,10.474Z" transform="translate(0 0)" fill="none" stroke="#4f7575" stroke-linecap="round" stroke-linejoin="round" stroke-width="1.5"/>
    <path id="Caminho_45" data-name="Caminho 45" d="M8.56,4V24.884" transform="translate(3.802 0.402)" fill="none" stroke="#4f7575" stroke-linecap="round" stroke-linejoin="round" stroke-width="1.5"/>
    <path id="Caminho_46" data-name="Caminho 46" d="M15.73,6.62V28.114" transform="translate(8.151 1.991)" fill="none" stroke="#4f7575" stroke-linecap="round" stroke-linejoin="round" stroke-width="1.5"/>
    <line id="Linha_12" data-name="Linha 12" x2="15" transform="translate(10.622 37.35)" fill="none" stroke="#4f7575" stroke-linecap="round" stroke-width="2"/>
  </g>
</svg>
