<svg xmlns="http://www.w3.org/2000/svg" width="31.58" height="30.071" viewBox="0 0 31.58 30.071">
  <g id="pet" transform="translate(-1.22 -1.75)">
    <path id="Caminho_39" data-name="Caminho 39" d="M4.418,19.89a7.008,7.008,0,0,0,7.092,7.692h7.018A7.136,7.136,0,0,0,25.8,19.011,11.2,11.2,0,0,0,15.158,10,11.008,11.008,0,0,0,4.418,19.89Z" transform="translate(1.127 3.489)" fill="none" stroke="#9b9b9b" stroke-linecap="round" stroke-linejoin="round" stroke-width="1.5"/>
    <path id="Caminho_40" data-name="Caminho 40" d="M11.633,9.826A3.663,3.663,0,1,0,7.97,6.163,3.663,3.663,0,0,0,11.633,9.826Z" transform="translate(2.791)" fill="none" stroke="#9b9b9b" stroke-linecap="round" stroke-linejoin="round" stroke-width="1.5"/>
    <path id="Caminho_41" data-name="Caminho 41" d="M18.23,10.561A2.93,2.93,0,1,0,15.3,7.63,2.93,2.93,0,0,0,18.23,10.561Z" transform="translate(6.201 1.023)" fill="none" stroke="#9b9b9b" stroke-linecap="round" stroke-linejoin="round" stroke-width="1.5"/>
    <path id="Caminho_42" data-name="Caminho 42" d="M21.7,14.1a2.2,2.2,0,1,0-2.2-2.2A2.2,2.2,0,0,0,21.7,14.1Z" transform="translate(8.155 3.349)" fill="none" stroke="#9b9b9b" stroke-linecap="round" stroke-linejoin="round" stroke-width="1.5"/>
    <path id="Caminho_43" data-name="Caminho 43" d="M4.9,12.561A2.93,2.93,0,1,0,1.97,9.63,2.93,2.93,0,0,0,4.9,12.561Z" transform="translate(0 1.954)" fill="none" stroke="#9b9b9b" stroke-linecap="round" stroke-linejoin="round" stroke-width="1.5"/>
  </g>
</svg>
