<svg xmlns="http://www.w3.org/2000/svg" width="30.391" height="31.422" viewBox="0 0 30.391 31.422">
  <g id="shop" transform="translate(-1.568 -1.25)">
    <path id="Caminho_48" data-name="Caminho 48" d="M3.01,11.22v6.717c0,6.717,2.693,9.41,9.41,9.41h8.064c6.717,0,9.41-2.693,9.41-9.41V11.22" transform="translate(0.341 4.574)" fill="none" stroke="#4f7575" stroke-linecap="round" stroke-linejoin="round" stroke-width="1.5"/>
    <path id="Caminho_49" data-name="Caminho 49" d="M13.5,16.961a4.436,4.436,0,0,0,4.488-4.967L17,2H10.01l-1,9.994A4.436,4.436,0,0,0,13.5,16.961Z" transform="translate(3.305)" fill="none" stroke="#4f7575" stroke-linecap="round" stroke-linejoin="round" stroke-width="1.5"/>
    <path id="Caminho_50" data-name="Caminho 50" d="M20.3,16.961A4.872,4.872,0,0,0,25.236,11.5l-.419-4.114C24.279,3.5,22.783,2,18.863,2H14.3l1.047,10.488A5.1,5.1,0,0,0,20.3,16.961Z" transform="translate(5.942)" fill="none" stroke="#4f7575" stroke-linecap="round" stroke-linejoin="round" stroke-width="1.5"/>
    <path id="Caminho_51" data-name="Caminho 51" d="M7.286,16.961a5.072,5.072,0,0,0,4.937-4.473l.329-3.306L13.27,2H8.707C4.788,2,3.292,3.5,2.753,7.386l-.4,4.114A4.872,4.872,0,0,0,7.286,16.961Z" transform="translate(0)" fill="none" stroke="#4f7575" stroke-linecap="round" stroke-linejoin="round" stroke-width="1.5"/>
    <path id="Caminho_52" data-name="Caminho 52" d="M13.24,17c-2.5,0-3.74,1.242-3.74,3.74v3.74h7.48V20.74C16.98,18.242,15.739,17,13.24,17Z" transform="translate(3.561 7.441)" fill="none" stroke="#4f7575" stroke-linecap="round" stroke-linejoin="round" stroke-width="1.5"/>
  </g>
</svg>
