<svg xmlns="http://www.w3.org/2000/svg" width="173.951" height="56.017" viewBox="0 0 173.951 56.017">
  <g id="LOGO" transform="translate(-1281.12 -206.426)">
    <text id="PETLOC" transform="translate(1347.071 242.938)" fill="#87aaaa" font-size="28" font-family="Nunito-Bold, Nunito" font-weight="700"><tspan x="0" y="0">PETLOC</tspan></text>
    <g id="Grupo_25" data-name="Grupo 25" transform="translate(1281.637 206.926)">
      <g id="Grupo_24" data-name="Grupo 24" transform="translate(0 0)">
        <path id="Caminho_4" data-name="Caminho 4" d="M33.3,3.315A22.786,22.786,0,0,0,24.293,1.5a22.4,22.4,0,0,0-16.1,6.7A22.736,22.736,0,0,0,3.351,33.294l.069.138A54.655,54.655,0,0,0,19.732,54.651l.622.484a6.546,6.546,0,0,0,4.009,1.382A6.463,6.463,0,0,0,28.3,55.2a55.26,55.26,0,0,0,5.142-4.461c1.041-1.014,2.2-2.261,3.308-3.56a.54.54,0,0,0-.408-.892H32.117a.552.552,0,0,0-.391.166,49.633,49.633,0,0,1-6.051,5.429,2.385,2.385,0,0,1-2.834,0L22.22,51.4A50.945,50.945,0,0,1,7.152,31.843L7.083,31.7A18.719,18.719,0,0,1,24.293,5.647a18.338,18.338,0,0,1,13.2,5.529A18.375,18.375,0,0,1,40.682,15.4a.253.253,0,0,0,.222.132h4.14a.259.259,0,0,0,.238-.36A22.707,22.707,0,0,0,33.3,3.315" transform="translate(-1.5 -1.5)" fill="#87aaaa"/>
        <path id="Caminho_5" data-name="Caminho 5" d="M33.3,3.315A22.786,22.786,0,0,0,24.293,1.5a22.4,22.4,0,0,0-16.1,6.7A22.736,22.736,0,0,0,3.351,33.294l.069.138A54.655,54.655,0,0,0,19.732,54.651l.622.484a6.546,6.546,0,0,0,4.009,1.382A6.463,6.463,0,0,0,28.3,55.2a54.32,54.32,0,0,0,8.45-8.021.54.54,0,0,0-.408-.892H32.117a.552.552,0,0,0-.391.166,49.633,49.633,0,0,1-6.051,5.429,2.385,2.385,0,0,1-2.834,0L22.22,51.4A50.945,50.945,0,0,1,7.152,31.843L7.083,31.7A18.719,18.719,0,0,1,24.293,5.647a18.338,18.338,0,0,1,13.2,5.529A18.375,18.375,0,0,1,40.682,15.4a.253.253,0,0,0,.222.132h4.14a.259.259,0,0,0,.238-.36A22.707,22.707,0,0,0,33.3,3.315Z" transform="translate(-1.5 -1.5)" fill="none" stroke="#cee5d0" stroke-width="1"/>
        <path id="Caminho_6" data-name="Caminho 6" d="M78.619,64.854a4.865,4.865,0,0,0-1.423-.916,7.652,7.652,0,0,1-2.693-1.61c-.789-.962-1.389-2.055-2.126-2.977a3.888,3.888,0,0,0-3.058-1.7,4.177,4.177,0,0,0-2.981,1.458c-.8.811-1.526,1.8-2.414,2.724s-1.746,1.448-2.47,2.111a3.638,3.638,0,0,0-1.29,2.794,3.268,3.268,0,0,0,.842,2.185,3.662,3.662,0,0,0,2.764,1.114,9.89,9.89,0,0,0,3.1-.542,8.565,8.565,0,0,1,2.625-.489c2.049.006,3.732.73,5.828.733a4.722,4.722,0,0,0,2.94-.771,3,3,0,0,0,1.061-2.464,2.3,2.3,0,0,0-.7-1.656m-1.043,3.222a3.775,3.775,0,0,1-2.256.542c-1.817,0-3.528-.727-5.825-.734a9.654,9.654,0,0,0-2.943.542,8.8,8.8,0,0,1-2.782.489,2.413,2.413,0,0,1-1.916-.743,2.195,2.195,0,0,1-.564-1.427,2.282,2.282,0,0,1,.919-1.953c.61-.557,1.547-1.154,2.522-2.16.96-.993,1.687-2.008,2.4-2.726a3,3,0,0,1,2.185-1.124A2.642,2.642,0,0,1,71.5,60.053c.64.8,1.247,1.925,2.123,3a7.94,7.94,0,0,0,3.1,1.906,4.075,4.075,0,0,1,1.108.69,1.073,1.073,0,0,1,.368.863,1.781,1.781,0,0,1-.619,1.566m6.079-13.144a2.913,2.913,0,0,0-1.935-2.256,2.589,2.589,0,0,0-.687-.071,3.471,3.471,0,0,0-1.99.842A9.6,9.6,0,0,0,76.8,56.383a5.614,5.614,0,0,0-.727,4.048,3.07,3.07,0,0,0,2.265,2.241,3.43,3.43,0,0,0,3.083-1A8.52,8.52,0,0,0,83.506,58.4a5.758,5.758,0,0,0,.149-3.469m-1.2,3.061a7.57,7.57,0,0,1-1.8,2.85,2.207,2.207,0,0,1-2.042.718,1.838,1.838,0,0,1-1.442-1.411,4.607,4.607,0,0,1,.64-3.237,8.58,8.58,0,0,1,1.959-2.585,2.259,2.259,0,0,1,1.3-.6,1.353,1.353,0,0,1,.387.037,1.93,1.93,0,0,1,1.108,1.461,4.721,4.721,0,0,1-.111,2.764m-20.5-4.045a3.282,3.282,0,0,0-2.479-1.377,3.374,3.374,0,0,0-2.609,1.721A6.61,6.61,0,0,0,55.673,58a5.613,5.613,0,0,0,.963,3,3.38,3.38,0,0,0,2.726,1.712,3.223,3.223,0,0,0,2.7-1.9A8.17,8.17,0,0,0,63,56.906a4.791,4.791,0,0,0-1.052-2.959m-.873,6.317c-.483.867-1.071,1.321-1.712,1.319a2.282,2.282,0,0,1-1.792-1.2A4.7,4.7,0,0,1,56.8,58a5.532,5.532,0,0,1,.972-3.061A2.6,2.6,0,0,1,59.464,53.7a2.244,2.244,0,0,1,1.582.953,3.738,3.738,0,0,1,.826,2.253,7.211,7.211,0,0,1-.8,3.361m16.4-14.209h-.962a4.534,4.534,0,0,1,.585,2.352,7.752,7.752,0,0,1-.9,3.732,2.7,2.7,0,0,1-2.343,1.579,1.3,1.3,0,0,1-1-.477,4.205,4.205,0,0,1-.792-1.393,10.639,10.639,0,0,1-.591-3.346A4.528,4.528,0,0,1,72.33,46a3.554,3.554,0,0,1,.8-.808c-.2-.319-.4-.628-.622-.931a4.6,4.6,0,0,0-1.1,1.068A5.5,5.5,0,0,0,70.337,48.5,11.5,11.5,0,0,0,71,52.254a5.062,5.062,0,0,0,1.018,1.761,2.527,2.527,0,0,0,1.829.829A3.888,3.888,0,0,0,77.161,52.7a8.763,8.763,0,0,0,1.062-4.293,4.525,4.525,0,0,0-.749-2.355m-9.21-1.1a2.982,2.982,0,0,0-2.34-1.4,3.7,3.7,0,0,0-3.1,1.758,6.127,6.127,0,0,0-.938,3.29,7.544,7.544,0,0,0,1,3.47A3.622,3.622,0,0,0,65.8,54.269a2.676,2.676,0,0,0,1.761-.631,3.871,3.871,0,0,0,1.024-1.548,11.736,11.736,0,0,0,.622-4.135,5.174,5.174,0,0,0-.947-3m-.715,6.725a2.712,2.712,0,0,1-.724,1.089,1.458,1.458,0,0,1-1.021.368c-.665,0-1.389-.653-1.934-1.622a6.86,6.86,0,0,1-.857-2.906,5.161,5.161,0,0,1,.761-2.677,2.458,2.458,0,0,1,2.151-1.247,1.947,1.947,0,0,1,1.424.938,4.059,4.059,0,0,1,.736,2.324,10.993,10.993,0,0,1-.535,3.733" transform="translate(-36.303 -28.354)" fill="#87aaaa" stroke="#87aaaa" stroke-width="1"/>
      </g>
    </g>
  </g>
</svg>
